<?xml version="1.0" encoding="UTF-8"?>
<!DOCTYPE svg PUBLIC "-//W3C//DTD SVG 1.1//EN" "http://www.w3.org/Graphics/SVG/1.1/DTD/svg11.dtd">
<!-- Creator: CorelDRAW 2017 -->
<svg xmlns="http://www.w3.org/2000/svg" xml:space="preserve" width="210mm" height="210mm" version="1.1" style="shape-rendering:geometricPrecision; text-rendering:geometricPrecision; image-rendering:optimizeQuality; fill-rule:evenodd; clip-rule:evenodd"
viewBox="0 0 6156 6156"
 xmlns:xlink="http://www.w3.org/1999/xlink">
 <defs>
  <style type="text/css">
   <![CDATA[
    .fil0 {fill:#cacaca}
   ]]>
  </style>
 </defs>
 <g id="Слой_x0020_1">
  <metadata id="CorelCorpID_0Corel-Layer"/>
  <path class="fil0" d="M6156 3078c0,-1700 -1378,-3078 -3078,-3078 -1700,0 -3078,1378 -3078,3078 0,1700 1378,3078 3078,3078 1700,0 3078,-1378 3078,-3078zm-1239 248l0 1269 -736 0 0 -1184c0,-297 -106,-500 -373,-500 -203,0 -324,137 -377,269 -19,47 -24,113 -24,179l0 1236 -736 0c0,0 10,-2005 0,-2213l736 0 0 314c-1,2 -4,5 -5,7l5 0 0 -7c98,-150 272,-366 663,-366 484,0 847,316 847,996l0 0zm-3016 -2011c-252,0 -416,165 -416,382 0,212 160,382 407,382l5 0c257,0 416,-170 416,-382 -5,-217 -160,-382 -411,-382l0 0zm-373 3280l736 0 0 -2213 -736 0 0 2213z"/>
 </g>
</svg>
