<?xml version="1.0" encoding="UTF-8"?>
<!DOCTYPE svg PUBLIC "-//W3C//DTD SVG 1.1//EN" "http://www.w3.org/Graphics/SVG/1.1/DTD/svg11.dtd">
<!-- Creator: CorelDRAW 2017 -->
<svg xmlns="http://www.w3.org/2000/svg" xml:space="preserve" width="100%" height="100%" version="1.1" style="shape-rendering:geometricPrecision; text-rendering:geometricPrecision; image-rendering:optimizeQuality; fill-rule:evenodd; clip-rule:evenodd"
viewBox="0 0 6148 1489"
 xmlns:xlink="http://www.w3.org/1999/xlink">
 <defs>
  <style type="text/css">
   <![CDATA[
    .fil0 {fill:#222222;fill-rule:nonzero}
   ]]>
  </style>
 </defs>
 <g id="Слой_x0020_1">
  <metadata id="CorelCorpID_0Corel-Layer"/>
  <path class="fil0" d="M627 30l-627 0 0 64 279 0 0 826 69 0 0 -826 279 0 0 -64zm497 903c257,0 458,-204 458,-458 0,-254 -202,-458 -458,-458 -257,0 -458,204 -458,458 0,254 202,458 458,458zm0 -65c-220,0 -391,-175 -391,-394 0,-218 171,-394 391,-394 220,0 391,175 391,394 0,218 -171,394 -391,394zm1232 51l-462 -457 450 -432 -90 0 -433 414 0 -414 -67 0 0 889 67 0 0 -438 446 438 90 0zm191 -64l0 -353 406 0 0 -64 -406 0 0 -345 438 0 0 -64 -505 0 0 889 512 0 0 -64 -445 0zm1194 -826l0 765 -526 -765 -58 0 0 889 67 0 0 -765 525 765 60 0 0 -889 -67 0zm696 903c257,0 458,-204 458,-458 0,-254 -202,-458 -458,-458 -257,0 -458,204 -458,458 0,254 202,458 458,458zm0 -65c-220,0 -391,-175 -391,-394 0,-218 171,-394 391,-394 220,0 391,175 391,394 0,218 -171,394 -391,394zm683 -640c62,0 114,-52 114,-114 0,-62 -52,-114 -114,-114 -62,0 -114,52 -114,114 0,62 52,114 114,114zm-95 691l191 0 0 -635 -191 0 0 635zm692 -889l-356 0 0 889 356 0c245,0 432,-193 432,-445 0,-251 -187,-445 -432,-445zm0 693l-152 0 0 -498 152 0c140,0 236,97 236,249 0,152 -97,249 -236,249zm-2831 514c-34,0 -61,18 -76,45l0 -41 -18 0 0 247 18 0 0 -111c14,27 42,45 76,45 50,0 91,-40 91,-92 0,-52 -41,-92 -91,-92zm-1 167c-42,0 -75,-33 -75,-75 0,-42 33,-75 75,-75 42,0 75,33 75,75 0,42 -33,75 -75,75zm216 17c51,0 92,-40 92,-92 0,-52 -41,-92 -92,-92 -52,0 -93,40 -93,92 0,52 41,92 93,92zm0 -17c-42,0 -75,-33 -75,-75 0,-42 33,-75 75,-75 42,0 74,33 74,75 0,42 -32,75 -74,75zm342 -163l-47 153 -49 -153 -18 0 -49 153 -47 -153 -19 0 56 176 19 0 49 -150 49 150 19 0 56 -176 -19 0zm130 -4c-54,0 -91,40 -91,92 0,53 38,92 93,92 35,0 62,-16 77,-40l-16 -9c-10,19 -32,32 -61,32 -40,0 -71,-26 -75,-66l160 0c0,-3 0,-6 0,-8 0,-48 -34,-93 -87,-93zm0 17c35,0 65,24 69,67l-142 0c4,-39 33,-67 73,-67zm146 22l0 -35 -18 0 0 176 18 0 0 -98c0,-45 29,-64 59,-64l0 -17c-24,0 -47,9 -59,37zm163 -38c-54,0 -91,40 -91,92 0,53 38,92 93,92 35,0 62,-16 77,-40l-16 -9c-10,19 -32,32 -61,32 -40,0 -71,-26 -75,-66l160 0c0,-3 0,-6 0,-8 0,-48 -34,-93 -87,-93zm0 17c35,0 65,24 69,67l-142 0c4,-39 33,-67 73,-67zm284 -84l0 111c-14,-27 -42,-45 -76,-45 -50,0 -91,40 -91,92 0,52 41,92 91,92 34,0 61,-18 76,-45l0 41 18 0 0 -247 -18 0zm-75 234c-42,0 -75,-33 -75,-75 0,-42 33,-75 75,-75 42,0 75,33 75,75 0,42 -33,75 -75,75zm334 -167c-34,0 -61,18 -76,45l0 -111 -18 0 0 247 18 0 0 -41c14,27 42,45 76,45 50,0 91,-40 91,-92 0,-52 -41,-92 -91,-92zm-1 167c-42,0 -75,-33 -75,-75 0,-42 33,-75 75,-75 42,0 75,33 75,75 0,42 -33,75 -75,75zm257 -163l-61 157 -71 -157 -19 0 81 180 -4 10c-11,26 -29,43 -53,41l0 17c30,2 56,-20 70,-54l76 -193 -19 0zm328 176l-189 0 0 -19 123 -126 -118 0 0 -31 184 0 0 17 -125 126 125 0 0 33zm289 -42c0,16 -3,28 -9,33 -6,6 -18,8 -34,8l-129 0c-17,0 -28,-3 -34,-8 -6,-6 -9,-17 -9,-33l0 -92c0,-16 3,-28 9,-33 6,-6 18,-8 34,-8l129 0c17,0 28,3 34,8 6,6 9,17 9,33l0 92zm-41 8l0 -110 -135 0 0 110 135 0zm345 34l-36 0 -134 -123 0 123 -37 0 0 -176 35 0 136 123 0 -123 37 0 0 176zm258 -144l-78 0 0 144 -41 0 0 -144 -77 0 0 -31 196 0 0 31zm275 103c0,16 -3,28 -9,33 -6,6 -18,8 -34,8l-129 0c-17,0 -28,-3 -34,-8 -6,-6 -9,-17 -9,-33l0 -92c0,-16 3,-28 9,-33 6,-6 18,-8 34,-8l129 0c17,0 28,3 34,8 6,6 9,17 9,33l0 92zm-41 8l0 -110 -135 0 0 110 135 0z"/>
 </g>
</svg>
